<svg xmlns="http://www.w3.org/2000/svg" width="161" height="38" viewBox="0 0 161 38">
  <g id="LOGO_Footer" data-name="LOGO Footer" transform="translate(-4.07 -5.47)">
    <path id="Path_84" data-name="Path 84" d="M97.45,25.77c0,5.238,3.236,8.895,7.877,8.895,3.327,0,5.531-1.518,6.5-4.39l.083-.251-1.322-.358-.075.211a4.912,4.912,0,0,1-4.407,3.414c-2.749,0-4.134-2.036-4.134-6.481,0,0-.008-.908,0-1.1h10.263v-.45c0-5.238-2.833-8.756-7.24-8.756-4.225,0-7.544,3.984-7.544,9.266M102,24.248v-.621c0-4.123.91-6.1,3.141-6.1,1.915,0,2.963,2.075,2.963,5.991v.729Z" fill="#6a6360"/>
    <path id="Path_85" data-name="Path 85" d="M143.889,12.972a2.811,2.811,0,0,0,5.48,0,2.8,2.8,0,0,0-5.48,0" fill="#6a6360"/>
    <path id="Path_86" data-name="Path 86" d="M96.485,32.591c-.676-.06-1.088-.55-1.088-2.462V18.29h2.512V16.585H95.4V11.566H94.266L91.1,16.6l-1.155,0v1.7H91.1V28.767c0,3.561.589,5.513,4,5.565l.016.016h2.86V32.591Z" fill="#6a6360"/>
    <path id="Path_87" data-name="Path 87" d="M151.626,20.924c0,3.286,2.275,4.692,5.424,6.178l.756.355c2.611,1.223,3.842,2.02,3.842,3.426a2.59,2.59,0,0,1-2.781,2.57c-2.156,0-5.167-1.713-5.484-4.322h-1.6l.032,5.182h1.673v-.426c0-.295.178-.366.419-.366a2.815,2.815,0,0,1,1.12.474,8.069,8.069,0,0,0,4,.729c3.276,0,6.045-2.346,6.045-5.2,0-3.537-2.421-5.019-6.437-6.812-2.425-1.076-3.778-1.729-3.778-2.876a2.456,2.456,0,0,1,2.623-2.263,5.357,5.357,0,0,1,5.06,3.864l1.527-.048.016-4.848h-1.642V17c0,.243-.075.33-.36.33a4.3,4.3,0,0,1-1.171-.454,9.241,9.241,0,0,0-3.667-.649c-3.043.044-5.614,2-5.614,4.693" fill="#6a6360"/>
    <path id="Path_88" data-name="Path 88" d="M120.749,33.173c-2.168,0-3.011-2.255-3.011-8.031,0-4.609.93-6.943,2.762-6.943,1.642,0,3.3,1.928,3.3,5.613V27.9c0,3.3-1.139,5.274-3.054,5.274m-4.732,10.3c3.929,0,6.959-1.068,9.009-3.183a11.583,11.583,0,0,0,2.932-8.25c0-.032,0-12.568,0-12.568,0-.557-.008-.8.146-.952s.336-.215,1.127-.215h.348V16.582l-5.562.008v2.525a5.38,5.38,0,0,0-4.514-2.6c-3.505,0-6.251,3.98-6.251,9.058,0,5.318,2.809,9.031,6.836,9.031a4.6,4.6,0,0,0,3.719-1.685s.024.729-.016,1.2a8.931,8.931,0,0,1-1.836,5.146,8.19,8.19,0,0,1-5.93,2.8Z" fill="#6a6360"/>
    <path id="Path_89" data-name="Path 89" d="M150.9,32.6h-.348c-.791,0-.977-.064-1.131-.219s-.146-.39-.142-.948l-.02-14.846-5.954,0V18.3h.348c.791,0,.977.064,1.132.219s.15.394.142.952l0,14.851,5.978-.008Z" fill="#6a6360"/>
    <path id="Path_90" data-name="Path 90" d="M64.873,9.658c5.151,0,5.123,1.044,6.2,3.238l1.167,0,.008-4.673H56.382V9.945h.479c.8,0,.981.064,1.131.219s.15.391.146.948V31.428c0,.562.008.8-.146.952s-.336.215-1.131.215h-.479v1.717H72.461V28.99H71.274c-.906,2.693-.985,3.86-5.95,3.86-2.378,0-2.781-.2-2.781-2.625v-9.4h1.021c4.016,0,3.751.824,4,2.924l1.06-.02V16.713l-1.04-.04c-.376,2.406.031,2.788-4.032,2.788H62.542V11.686c0-1.729-.388-2.027,2.33-2.027" fill="#6a6360"/>
    <path id="Path_91" data-name="Path 91" d="M89.914,32.6c-.791,0-.977-.064-1.131-.219s-.146-.39-.142-.948V23c0-4.223-1.25-6.493-5.143-6.493a6.19,6.19,0,0,0-5.353,2.948V16.582l-5.551.008v1.717h.348c.791,0,.977.064,1.127.215s.15.395.146.952l0,14.838h5.816V32.6h-.348c-.791,0-.977-.064-1.131-.219s-.146-.39-.142-.948V23.8c0-3.274,2.338-5.593,4.134-5.593,1.432,0,1.907,1.813,1.907,3.589V34.308l5.816,0V32.6Z" fill="#6a6360"/>
    <path id="Path_92" data-name="Path 92" d="M140.116,16.376c-1.531,0-3.125,1.291-4.035,3.836,0,.012-.012.024-.016.036V16.583h-5.717V18.3h.348c.791,0,.977.064,1.127.219s.15.39.146.952l-.012,14.842h5.994V32.6H137.6c-.791,0-.977-.064-1.131-.219s-.146-.39-.142-.952l0-6.645c0-3.565.906-5.358,1.634-5.358.328,0,.3.383.53,1.048a2.047,2.047,0,0,0,1.978,1.362c1.456,0,2.318-.984,2.318-2.7a2.7,2.7,0,0,0-2.671-2.761" fill="#6a6360"/>
    <path id="Path_93" data-name="Path 93" d="M31.44,12.394a7.168,7.168,0,0,0-2.069-5.139,7.189,7.189,0,0,0-5.285-1.781C19.8,5.6,14.6,8.382,10.5,12.736s-6.556,9.72-6.429,14.01a7.2,7.2,0,0,0,2.081,5.182c3.565,3.366,10.663,1.781,16.692-3.406-.4-.275-.772-.562-1.123-.857-2.746,2.211-5.705,3.553-8.17,3.625a4.582,4.582,0,0,1-3.375-1.115,4.607,4.607,0,0,1-1.31-3.314c-.095-3.227,1.915-7.429,5.242-10.967s7.406-5.8,10.622-5.9a4.586,4.586,0,0,1,3.375,1.115,3.865,3.865,0,0,1,.958,1.462,5.113,5.113,0,0,1,.293,1.175,6.156,6.156,0,0,1,.059.677c.091,2.972-1.61,6.764-4.478,10.11.356.255.728.5,1.127.733,3.24-3.844,5.1-8.118,5.349-11.724a11.307,11.307,0,0,0,.024-1.155" fill="#ab0d1c"/>
    <path id="Path_94" data-name="Path 94" d="M49.949,19.595C47.378,16.161,42.108,13.5,36.2,12.664a28.261,28.261,0,0,0-4.759-.271,11.576,11.576,0,0,1-.024,1.159,23.473,23.473,0,0,1,4.443.223c7.236,1.028,12.68,5.031,12.13,8.919S41.1,28.9,33.86,27.868a21.552,21.552,0,0,1-7.794-2.6c-.4-.231-.772-.478-1.124-.733A9.947,9.947,0,0,1,22.805,22.5a4.79,4.79,0,0,1-1.076-3.549,4.791,4.791,0,0,1,2.018-3.107,12.461,12.461,0,0,1,5.614-2.091,5.308,5.308,0,0,0-.293-1.175c-5.97.749-10.46,3.617-11.026,7.6-.376,2.649,1.056,5.306,3.679,7.493q.534.442,1.127.861a24.7,24.7,0,0,0,10.544,3.931c9.234,1.315,17.38-2.055,18.156-7.509a7.211,7.211,0,0,0-1.6-5.354" fill="#ab0d1c"/>
  </g>
</svg>
