<svg xmlns="http://www.w3.org/2000/svg" width="322" height="76" viewBox="0 0 161 38">
  <g id="LOGO_Footer" data-name="LOGO Footer" transform="translate(53.4905 -0.954)">
    <path id="Path_93" data-name="Path 93" d="M31.44,12.394a7.168,7.168,0,0,0-2.069-5.139,7.189,7.189,0,0,0-5.285-1.781C19.8,5.6,14.6,8.382,10.5,12.736s-6.556,9.72-6.429,14.01a7.2,7.2,0,0,0,2.081,5.182c3.565,3.366,10.663,1.781,16.692-3.406-.4-.275-.772-.562-1.123-.857-2.746,2.211-5.705,3.553-8.17,3.625a4.582,4.582,0,0,1-3.375-1.115,4.607,4.607,0,0,1-1.31-3.314c-.095-3.227,1.915-7.429,5.242-10.967s7.406-5.8,10.622-5.9a4.586,4.586,0,0,1,3.375,1.115,3.865,3.865,0,0,1,.958,1.462,5.113,5.113,0,0,1,.293,1.175,6.156,6.156,0,0,1,.059.677c.091,2.972-1.61,6.764-4.478,10.11.356.255.728.5,1.127.733,3.24-3.844,5.1-8.118,5.349-11.724a11.307,11.307,0,0,0,.024-1.155" fill="#FFFFFF"/>
    <path id="Path_94" data-name="Path 94" d="M49.949,19.595C47.378,16.161,42.108,13.5,36.2,12.664a28.261,28.261,0,0,0-4.759-.271,11.576,11.576,0,0,1-.024,1.159,23.473,23.473,0,0,1,4.443.223c7.236,1.028,12.68,5.031,12.13,8.919S41.1,28.9,33.86,27.868a21.552,21.552,0,0,1-7.794-2.6c-.4-.231-.772-.478-1.124-.733A9.947,9.947,0,0,1,22.805,22.5a4.79,4.79,0,0,1-1.076-3.549,4.791,4.791,0,0,1,2.018-3.107,12.461,12.461,0,0,1,5.614-2.091,5.308,5.308,0,0,0-.293-1.175c-5.97.749-10.46,3.617-11.026,7.6-.376,2.649,1.056,5.306,3.679,7.493q.534.442,1.127.861a24.7,24.7,0,0,0,10.544,3.931c9.234,1.315,17.38-2.055,18.156-7.509a7.211,7.211,0,0,0-1.6-5.354" fill="#FFFFFF"/>
  </g>
</svg>